<svg xmlns="http://www.w3.org/2000/svg" xmlns:xlink="http://www.w3.org/1999/xlink" width="500" zoomAndPan="magnify" viewBox="0 0 375 374.999991" height="500" preserveAspectRatio="xMidYMid meet" version="1.0"><defs><clipPath id="628dc6b2b5"><path d="M 1.214844 2.429688 L 373.785156 2.429688 L 373.785156 375 L 1.214844 375 Z M 1.214844 2.429688 " clip-rule="nonzero"/></clipPath><clipPath id="a420180aa1"><path d="M 187.5 2.429688 C 84.617188 2.429688 1.214844 85.832031 1.214844 188.714844 C 1.214844 291.597656 84.617188 375 187.5 375 C 290.382812 375 373.785156 291.597656 373.785156 188.714844 C 373.785156 85.832031 290.382812 2.429688 187.5 2.429688 Z M 187.5 2.429688 " clip-rule="nonzero"/></clipPath><clipPath id="fab4465ea2"><path d="M 84.417969 97.753906 L 290.667969 97.753906 L 290.667969 276.253906 L 84.417969 276.253906 Z M 84.417969 97.753906 " clip-rule="nonzero"/></clipPath><clipPath id="50ce88688f"><path d="M 121.964844 121.410156 L 253.214844 121.410156 L 253.214844 252.660156 L 121.964844 252.660156 Z M 121.964844 121.410156 " clip-rule="nonzero"/></clipPath><clipPath id="6ce42db954"><path d="M 99 77 L 315 77 L 315 230 L 99 230 Z M 99 77 " clip-rule="nonzero"/></clipPath><clipPath id="a536eb04cd"><path d="M 99.3125 118.578125 L 155.039062 21.714844 L 347.46875 132.417969 L 291.742188 229.28125 Z M 99.3125 118.578125 " clip-rule="nonzero"/></clipPath><clipPath id="6d2cebe1a5"><path d="M 91.84375 131.558594 L 155.050781 21.695312 L 347.480469 132.398438 L 284.273438 242.265625 Z M 91.84375 131.558594 " clip-rule="nonzero"/></clipPath><clipPath id="e0baebaf3a"><path d="M 91.84375 131.558594 L 155.050781 21.695312 L 347.480469 132.398438 L 284.273438 242.265625 Z M 91.84375 131.558594 " clip-rule="nonzero"/></clipPath><clipPath id="8fc9777f40"><path d="M 60 146 L 276 146 L 276 298 L 60 298 Z M 60 146 " clip-rule="nonzero"/></clipPath><clipPath id="7a921e73cd"><path d="M 27.460938 242.886719 L 83.1875 146.023438 L 275.617188 256.726562 L 219.890625 353.589844 Z M 27.460938 242.886719 " clip-rule="nonzero"/></clipPath><clipPath id="a227145ac8"><path d="M 90.808594 132.777344 L 27.601562 242.644531 L 220.03125 353.347656 L 283.234375 243.480469 Z M 90.808594 132.777344 " clip-rule="nonzero"/></clipPath><clipPath id="e60468b7b9"><path d="M 90.808594 132.777344 L 27.601562 242.644531 L 220.03125 353.347656 L 283.234375 243.480469 Z M 90.808594 132.777344 " clip-rule="nonzero"/></clipPath></defs><g clip-path="url(#628dc6b2b5)"><g clip-path="url(#a420180aa1)"><path fill="#121212" d="M 1.214844 2.429688 L 373.785156 2.429688 L 373.785156 375 L 1.214844 375 Z M 1.214844 2.429688 " fill-opacity="1" fill-rule="nonzero"/></g></g><g clip-path="url(#fab4465ea2)"><path fill="#8da68b" d="M 136.011719 276.257812 L 239.074219 276.257812 L 290.605469 187.007812 L 239.074219 97.753906 L 136.011719 97.753906 L 84.480469 187.007812 Z M 145.171875 113.621094 L 229.914062 113.621094 L 230.164062 114.054688 L 272.285156 187.007812 L 272.03125 187.441406 L 229.914062 260.390625 L 145.171875 260.390625 L 144.921875 259.957031 L 102.804688 187.007812 L 103.054688 186.570312 Z M 145.171875 113.621094 " fill-opacity="1" fill-rule="nonzero"/></g><g clip-path="url(#50ce88688f)"><path fill="#ee826c" d="M 207.070312 153.035156 C 206.945312 153.324219 206.738281 153.53125 206.488281 153.699219 C 206.15625 153.90625 205.699219 153.949219 205.324219 153.78125 C 198.550781 151.082031 192.066406 149.75 186.042969 149.917969 C 185.292969 149.917969 184.671875 149.335938 184.671875 148.589844 C 184.628906 147.839844 185.253906 147.257812 185.960938 147.214844 C 192.359375 147.09375 199.214844 148.464844 206.320312 151.289062 C 206.984375 151.578125 207.320312 152.328125 207.070312 153.035156 Z M 187.664062 121.410156 C 205.78125 121.410156 222.195312 128.765625 234.082031 140.652344 C 246.007812 152.535156 253.320312 168.949219 253.320312 187.109375 C 253.320312 205.226562 246.007812 221.640625 234.082031 233.527344 C 222.195312 245.453125 205.78125 252.765625 187.664062 252.765625 C 169.503906 252.765625 153.089844 245.453125 141.203125 233.527344 C 129.320312 221.640625 121.964844 205.226562 121.964844 187.109375 C 121.964844 168.949219 129.320312 152.535156 141.203125 140.652344 C 153.089844 128.765625 169.503906 121.410156 187.664062 121.410156 Z M 232.292969 142.4375 C 220.867188 131.011719 205.074219 123.945312 187.664062 123.945312 C 170.210938 123.945312 154.417969 131.011719 142.992188 142.4375 C 131.5625 153.867188 124.5 169.65625 124.5 187.109375 C 124.5 204.519531 131.5625 220.3125 142.992188 231.738281 C 154.417969 243.167969 170.210938 250.230469 187.664062 250.230469 C 205.074219 250.230469 220.867188 243.167969 232.292969 231.738281 C 243.722656 220.3125 250.785156 204.519531 250.785156 187.109375 C 250.785156 169.65625 243.722656 153.867188 232.292969 142.4375 Z M 164.683594 220.230469 C 162.316406 221.601562 159.324219 222.515625 155.542969 222.722656 C 155.207031 222.765625 154.835938 222.640625 154.585938 222.390625 C 154.542969 222.390625 154.542969 222.390625 154.542969 222.347656 C 153.671875 221.558594 154.210938 220.144531 155.375 220.0625 C 166.304688 219.480469 169.171875 212.957031 171.582031 204.644531 C 171.746094 203.9375 172.453125 203.480469 173.117188 203.605469 C 173.910156 203.730469 174.40625 204.519531 174.15625 205.269531 C 172.453125 211.253906 170.210938 217.027344 164.683594 220.230469 Z M 181.097656 205.890625 C 182.179688 199.910156 183.132812 194.714844 187.828125 193.050781 C 190.53125 192.136719 194.5625 192.054688 198.136719 196.957031 C 198.550781 197.539062 199.382812 197.664062 200.003906 197.25 C 200.585938 196.792969 200.710938 195.960938 200.296875 195.378906 C 196.804688 190.558594 191.941406 188.8125 186.957031 190.515625 C 180.765625 192.679688 179.601562 199.160156 178.480469 205.433594 C 176.902344 214.203125 175.28125 223.222656 161.691406 225.050781 C 160.445312 225.214844 160.113281 226.835938 161.152344 227.5 C 161.152344 227.5 161.152344 227.5 161.191406 227.5 C 161.441406 227.667969 161.773438 227.75 162.066406 227.707031 C 165.761719 227.210938 168.671875 226.210938 171.042969 224.839844 C 178.480469 220.5625 179.890625 212.664062 181.097656 205.890625 Z M 209.273438 219.398438 C 209.5625 219.4375 209.855469 219.355469 210.101562 219.230469 C 210.433594 219.023438 210.683594 218.691406 210.769531 218.234375 C 212.386719 207.179688 210.019531 197.375 203.910156 189.894531 C 198.964844 183.828125 190.65625 181.75 183.675781 184.78125 C 177.605469 187.441406 175.113281 192.886719 173.535156 197.914062 C 173.285156 198.578125 173.574219 199.367188 174.242188 199.617188 C 174.988281 199.949219 175.820312 199.535156 176.027344 198.785156 C 177.523438 194.132812 179.644531 189.476562 184.753906 187.234375 C 190.613281 184.699219 197.636719 186.484375 201.832031 191.597656 C 207.441406 198.453125 209.605469 207.472656 208.109375 217.734375 C 208.023438 218.484375 208.523438 219.316406 209.273438 219.398438 Z M 179.933594 228.25 C 180.472656 227.75 180.683594 226.917969 180.265625 226.335938 C 179.808594 225.714844 178.894531 225.589844 178.3125 226.089844 C 176.359375 227.75 173.824219 228.957031 170.707031 229.660156 C 169.421875 229.953125 169.253906 231.738281 170.5 232.195312 C 170.542969 232.195312 170.542969 232.195312 170.542969 232.195312 C 170.792969 232.320312 171.082031 232.320312 171.332031 232.28125 C 173.699219 231.738281 175.738281 230.949219 177.523438 229.910156 C 178.394531 229.414062 179.1875 228.871094 179.933594 228.25 Z M 194.3125 176.804688 C 193.5625 176.636719 192.816406 177.179688 192.734375 177.96875 C 192.648438 178.675781 193.191406 179.296875 193.894531 179.464844 C 198.425781 180.460938 202.539062 182.996094 205.492188 186.609375 C 209.9375 192.054688 212.722656 198.414062 213.800781 205.519531 C 213.882812 206.183594 214.425781 206.722656 215.132812 206.765625 C 215.378906 206.765625 215.589844 206.683594 215.796875 206.558594 C 216.253906 206.308594 216.542969 205.769531 216.460938 205.226562 C 215.339844 197.582031 212.347656 190.765625 207.566406 184.90625 C 204.203125 180.792969 199.507812 177.925781 194.3125 176.804688 Z M 149.265625 216.65625 C 149.265625 216.65625 149.308594 216.65625 149.308594 216.695312 C 149.558594 216.988281 149.929688 217.195312 150.347656 217.195312 C 154.460938 217.152344 157.578125 216.324219 160.027344 214.910156 C 165.847656 211.542969 167.839844 204.9375 169.792969 198.496094 C 171.957031 191.347656 174.199219 183.953125 181.804688 180.628906 C 182.46875 180.335938 182.757812 179.546875 182.46875 178.882812 C 182.179688 178.175781 181.386719 177.882812 180.722656 178.175781 C 171.957031 181.957031 169.460938 190.351562 167.21875 197.707031 C 164.558594 206.597656 162.191406 214.410156 150.304688 214.496094 C 149.226562 214.496094 148.601562 215.78125 149.265625 216.65625 Z M 209.105469 225.632812 C 209.3125 224.882812 208.855469 224.09375 208.066406 223.925781 C 207.402344 223.761719 206.738281 224.257812 206.527344 224.964844 C 206.03125 226.546875 205.449219 228.164062 204.824219 229.785156 C 204.410156 230.867188 205.492188 231.949219 206.570312 231.492188 C 206.570312 231.492188 206.613281 231.492188 206.613281 231.492188 C 206.945312 231.324219 207.195312 231.074219 207.320312 230.742188 C 207.984375 229.039062 208.605469 227.335938 209.105469 225.632812 Z M 192.648438 210.046875 L 192.648438 209.796875 C 192.609375 209.09375 192.066406 208.46875 191.320312 208.46875 C 190.53125 208.425781 189.90625 209.09375 189.949219 209.882812 L 189.992188 210.214844 C 190.363281 215.574219 191.027344 225.878906 181.386719 232.570312 C 180.390625 233.277344 180.804688 234.855469 182.011719 234.980469 C 182.054688 234.980469 182.054688 234.980469 182.054688 234.980469 C 182.386719 235.023438 182.71875 234.9375 182.96875 234.730469 C 193.773438 227.210938 193.023438 215.53125 192.648438 210.046875 Z M 215.171875 226.335938 C 216.417969 221.351562 217 216.363281 216.960938 211.628906 C 216.960938 210.921875 216.417969 210.296875 215.710938 210.214844 C 214.921875 210.171875 214.257812 210.796875 214.257812 211.585938 C 214.339844 216.15625 213.757812 220.933594 212.554688 225.753906 C 212.304688 226.917969 213.550781 227.792969 214.550781 227.167969 C 214.550781 227.167969 214.589844 227.167969 214.589844 227.167969 C 214.882812 226.960938 215.089844 226.671875 215.171875 226.335938 Z M 195.433594 200.03125 C 194.4375 198.496094 192.773438 197.621094 190.945312 197.707031 C 189.117188 197.746094 187.496094 198.703125 186.625 200.28125 C 185.128906 202.941406 184.753906 206.472656 184.296875 210.214844 C 183.921875 213.703125 183.507812 217.320312 182.21875 220.519531 C 181.929688 221.183594 182.136719 222.015625 182.757812 222.347656 C 183.464844 222.722656 184.339844 222.390625 184.628906 221.640625 C 186.125 218.066406 186.582031 214.078125 187 210.503906 C 187.371094 207.054688 187.746094 203.773438 188.953125 201.613281 C 189.367188 200.863281 190.15625 200.40625 191.027344 200.367188 C 191.902344 200.324219 192.691406 200.738281 193.191406 201.488281 C 197.636719 208.425781 198.964844 222.058594 190.28125 233.027344 C 189.574219 233.941406 190.28125 235.273438 191.402344 235.148438 C 191.402344 235.148438 191.445312 235.148438 191.445312 235.148438 C 191.820312 235.148438 192.152344 234.9375 192.402344 234.648438 C 201.875 222.679688 200.335938 207.679688 195.433594 200.03125 Z M 203.746094 202.566406 C 203.539062 201.863281 202.871094 201.40625 202.164062 201.570312 C 201.375 201.738281 200.917969 202.527344 201.167969 203.273438 C 203.578125 211.046875 203.164062 222.058594 197.886719 231.988281 C 197.34375 232.984375 198.257812 234.148438 199.382812 233.902344 C 199.382812 233.859375 199.421875 233.859375 199.421875 233.859375 C 199.796875 233.777344 200.089844 233.527344 200.253906 233.195312 C 205.863281 222.640625 206.320312 210.921875 203.746094 202.566406 Z M 141.578125 188.355469 C 143.488281 187.234375 145.277344 185.570312 146.773438 182.996094 C 146.816406 182.953125 146.816406 182.914062 146.855469 182.871094 C 147.769531 180.667969 148.808594 178.550781 149.847656 176.554688 C 150.140625 176.015625 150.015625 175.265625 149.515625 174.851562 C 148.808594 174.3125 147.851562 174.558594 147.480469 175.265625 C 146.398438 177.300781 145.402344 179.464844 144.40625 181.75 C 143.03125 184.074219 141.328125 185.488281 139.585938 186.363281 C 139.125 186.609375 138.835938 187.066406 138.878906 187.566406 C 138.878906 187.566406 138.878906 187.566406 138.878906 187.609375 C 138.878906 188.5625 139.875 189.1875 140.789062 188.773438 C 141.039062 188.648438 141.328125 188.480469 141.578125 188.355469 Z M 140.582031 180.417969 C 142.160156 179.339844 143.40625 176.761719 145.152344 173.1875 C 147.273438 168.824219 150.179688 162.839844 154.835938 157.398438 C 155.332031 156.859375 155.332031 155.984375 154.835938 155.484375 C 154.253906 154.945312 153.378906 154.988281 152.882812 155.570312 C 147.9375 161.304688 144.902344 167.496094 142.742188 172.023438 C 142.078125 173.355469 141.496094 174.601562 140.914062 175.640625 C 140.25 176.886719 139.75 178.214844 139.417969 179.589844 C 139.25 180.253906 140 180.792969 140.582031 180.417969 Z M 159.738281 150.789062 C 160.195312 151.371094 161.027344 151.496094 161.648438 151.039062 C 163.601562 149.585938 165.679688 148.339844 167.882812 147.257812 C 176.859375 142.851562 185.460938 141.066406 193.5625 141.898438 C 193.855469 141.9375 194.144531 141.855469 194.355469 141.730469 C 194.726562 141.523438 194.976562 141.148438 195.019531 140.734375 C 195.101562 139.984375 194.5625 139.320312 193.8125 139.238281 C 185.253906 138.367188 176.109375 140.234375 166.71875 144.847656 C 164.351562 145.96875 162.105469 147.339844 160.027344 148.921875 C 159.449219 149.335938 159.324219 150.167969 159.738281 150.789062 Z M 163.3125 179.710938 C 166.097656 174.933594 169.460938 171.566406 173.910156 168.992188 C 178.730469 166.207031 183.882812 164.878906 189.199219 165.042969 C 189.449219 165.042969 189.699219 165.003906 189.90625 164.878906 C 190.28125 164.628906 190.53125 164.210938 190.570312 163.753906 C 190.570312 163.007812 190.03125 162.382812 189.285156 162.34375 C 183.464844 162.175781 177.855469 163.632812 172.539062 166.664062 C 167.714844 169.449219 164.019531 173.1875 160.984375 178.339844 C 160.609375 179.007812 160.859375 179.796875 161.484375 180.167969 C 162.105469 180.542969 162.9375 180.335938 163.3125 179.710938 Z M 225.601562 193.34375 C 225.6875 193.300781 225.726562 193.257812 225.8125 193.21875 C 226.351562 192.925781 226.601562 192.222656 226.351562 191.597656 C 224.648438 187.152344 222.277344 183.078125 219.410156 179.421875 C 213.011719 171.402344 204.949219 165.75 196.640625 163.507812 C 195.890625 163.296875 195.183594 163.714844 194.976562 164.421875 C 194.769531 165.125 195.183594 165.875 195.933594 166.082031 C 203.660156 168.203125 211.265625 173.519531 217.292969 181.085938 C 220.035156 184.53125 222.238281 188.398438 223.859375 192.554688 C 224.148438 193.257812 224.894531 193.59375 225.601562 193.34375 Z M 222.238281 216.113281 C 222.527344 216.113281 222.777344 216.074219 222.984375 215.949219 C 223.359375 215.699219 223.648438 215.324219 223.648438 214.867188 C 224.480469 203.9375 222.238281 195.003906 216.417969 185.90625 C 216.003906 185.28125 215.171875 185.113281 214.550781 185.488281 C 213.925781 185.90625 213.757812 186.734375 214.175781 187.359375 C 219.660156 195.917969 221.738281 204.355469 220.992188 214.660156 C 220.949219 215.410156 221.488281 216.074219 222.238281 216.113281 Z M 143.242188 192.59375 C 142.617188 193.050781 142.492188 193.882812 142.910156 194.464844 C 143.324219 195.046875 144.070312 195.210938 144.695312 194.839844 C 144.695312 194.839844 144.738281 194.796875 144.777344 194.796875 C 149.101562 191.722656 151.882812 186.484375 154.835938 180.917969 C 157.617188 175.722656 160.484375 170.363281 164.890625 165.917969 C 165.390625 165.417969 165.390625 164.546875 164.890625 164.046875 C 164.351562 163.507812 163.519531 163.507812 162.980469 164.046875 C 158.324219 168.742188 155.207031 174.558594 152.464844 179.671875 C 149.683594 184.90625 147.023438 189.894531 143.242188 192.59375 Z M 214.882812 168.203125 C 215.378906 167.621094 215.339844 166.789062 214.757812 166.289062 C 198.882812 152.246094 182.71875 150 168.007812 159.847656 C 167.425781 160.265625 167.257812 161.097656 167.632812 161.71875 C 168.050781 162.34375 168.878906 162.507812 169.503906 162.09375 C 183.300781 152.867188 197.925781 154.945312 212.96875 168.285156 C 213.425781 168.699219 214.050781 168.742188 214.550781 168.453125 C 214.675781 168.410156 214.796875 168.285156 214.882812 168.203125 Z M 153.089844 170.613281 C 153.253906 170.527344 153.421875 170.40625 153.546875 170.195312 C 160.277344 159.890625 168.507812 153.449219 177.980469 151 C 178.6875 150.832031 179.101562 150.085938 178.9375 149.378906 C 178.730469 148.671875 178.023438 148.214844 177.316406 148.421875 C 167.136719 151 158.410156 157.855469 151.300781 168.742188 C 150.886719 169.367188 151.054688 170.195312 151.675781 170.613281 C 152.132812 170.863281 152.671875 170.863281 153.089844 170.613281 Z M 229.632812 206.558594 C 229.507812 204.394531 229.21875 202.152344 228.800781 199.910156 C 228.679688 199.242188 228.054688 198.703125 227.347656 198.785156 C 226.558594 198.871094 226.019531 199.617188 226.144531 200.367188 C 226.558594 202.484375 226.847656 204.605469 226.933594 206.722656 C 227.015625 208.136719 227.015625 209.550781 226.972656 210.960938 C 226.972656 212.292969 228.761719 212.832031 229.46875 211.667969 C 229.46875 211.667969 229.46875 211.628906 229.46875 211.628906 C 229.59375 211.417969 229.675781 211.210938 229.675781 210.960938 C 229.71875 209.550781 229.675781 208.054688 229.632812 206.558594 Z M 214.839844 156.398438 C 214.21875 155.902344 213.300781 156.066406 212.886719 156.734375 C 212.511719 157.355469 212.722656 158.144531 213.261719 158.5625 C 222.609375 165.917969 231.128906 178.09375 234.996094 189.601562 C 235.242188 190.308594 236.324219 190.144531 236.367188 189.394531 C 236.40625 188.230469 236.449219 187.066406 236.449219 185.863281 C 236.449219 185.78125 236.40625 185.695312 236.367188 185.613281 C 231.960938 174.558594 223.773438 163.382812 214.839844 156.398438 Z M 203.578125 141.523438 C 202.871094 141.234375 202.042969 141.648438 201.832031 142.4375 C 201.667969 143.144531 202.082031 143.808594 202.746094 144.058594 C 212.347656 147.589844 221.53125 155.238281 230.132812 166.789062 C 230.671875 167.539062 231.835938 166.957031 231.546875 166.082031 C 231.089844 164.667969 230.546875 163.257812 229.925781 162.175781 C 221.65625 151.828125 212.84375 144.890625 203.578125 141.523438 Z M 221.53125 172.980469 C 220.992188 172.398438 220.074219 172.359375 219.535156 172.980469 C 219.039062 173.480469 219.121094 174.3125 219.578125 174.808594 C 225.894531 182.039062 230.050781 190.515625 231.878906 200.074219 C 232.167969 201.445312 234.082031 201.570312 234.453125 200.242188 C 234.453125 200.199219 234.496094 200.199219 234.496094 200.15625 C 234.539062 199.949219 234.539062 199.742188 234.496094 199.535156 C 232.542969 189.476562 228.222656 180.542969 221.53125 172.980469 Z M 149.722656 210.796875 C 150.097656 210.589844 150.304688 210.214844 150.386719 209.839844 C 150.511719 208.925781 149.683594 208.179688 148.808594 208.300781 C 148.019531 208.386719 147.1875 208.46875 146.316406 208.46875 C 145.277344 208.46875 144.652344 209.550781 145.152344 210.464844 C 145.402344 210.921875 145.859375 211.167969 146.359375 211.167969 C 147.355469 211.128906 148.351562 211.085938 149.226562 210.960938 C 149.433594 210.921875 149.597656 210.878906 149.722656 210.796875 Z M 158.90625 189.0625 C 159.199219 188.398438 158.988281 187.609375 158.367188 187.277344 C 157.660156 186.902344 156.789062 187.234375 156.496094 187.941406 C 153.421875 195.335938 150.96875 201.15625 143.15625 202.277344 C 142.328125 202.402344 141.828125 203.273438 142.117188 204.0625 C 142.328125 204.644531 142.949219 204.976562 143.53125 204.894531 C 145.816406 204.5625 147.730469 203.898438 149.308594 202.984375 C 154.335938 200.074219 156.578125 194.671875 158.90625 189.0625 Z M 177.359375 175.558594 C 188.160156 170.03125 201.585938 172.566406 209.9375 181.664062 C 210.351562 182.121094 211.058594 182.207031 211.597656 181.914062 C 211.683594 181.875 211.765625 181.789062 211.804688 181.75 C 212.386719 181.25 212.386719 180.378906 211.890625 179.835938 C 202.746094 169.863281 188.039062 167.121094 176.152344 173.1875 C 167.011719 177.84375 164.183594 186.113281 161.734375 193.425781 C 159.863281 198.910156 158.242188 203.648438 154.335938 206.308594 C 153.710938 206.722656 153.589844 207.554688 153.960938 208.179688 C 154.378906 208.757812 155.25 208.925781 155.832031 208.511719 C 160.484375 205.394531 162.316406 199.992188 164.269531 194.257812 C 166.679688 187.109375 169.171875 179.753906 177.359375 175.558594 Z M 177.359375 175.558594 " fill-opacity="1" fill-rule="nonzero"/></g><g clip-path="url(#6ce42db954)"><g clip-path="url(#a536eb04cd)"><g clip-path="url(#6d2cebe1a5)"><g clip-path="url(#e0baebaf3a)"><path fill="#afb436" d="M 105.847656 139.613281 L 92.769531 132.09375 L 124.375 77.160156 L 251.265625 77.046875 L 314.949219 186.796875 L 283.347656 241.730469 L 270.273438 234.210938 L 297.46875 186.9375 L 242.449219 92.367188 L 133.042969 92.34375 Z M 105.847656 139.613281 " fill-opacity="1" fill-rule="nonzero"/></g></g></g></g><g clip-path="url(#8fc9777f40)"><g clip-path="url(#7a921e73cd)"><g clip-path="url(#a227145ac8)"><g clip-path="url(#e60468b7b9)"><path fill="#afb436" d="M 104.808594 140.832031 L 91.734375 133.308594 L 60.128906 188.242188 L 123.816406 297.996094 L 250.707031 297.882812 L 282.3125 242.949219 L 269.234375 235.425781 L 242.039062 282.699219 L 132.632812 282.671875 L 77.613281 188.105469 Z M 104.808594 140.832031 " fill-opacity="1" fill-rule="nonzero"/></g></g></g></g></svg>